{"glyphs":{"0":{"ha":576,"x_min":33,"x_max":546,"o":"m 33 336 q 115 637 33 511 q 319 766 199 766 q 488 664 429 766 q 546 392 546 566 q 468 98 546 220 q 264 -27 387 -27 q 93 87 159 -27 q 33 336 33 192 m 151 358 q 297 110 151 110 q 394 177 357 110 q 431 357 431 243 q 384 574 431 500 q 288 636 345 636 q 151 358 151 636 z "},"1":{"ha":576,"x_min":92,"x_max":397,"o":"m 92 581 l 113 686 l 363 754 l 392 742 l 389 277 q 397 1 389 177 l 301 -37 l 279 -37 l 272 539 q 233 574 272 574 q 111 558 203 574 l 92 581 z "},"2":{"ha":576,"x_min":43,"x_max":528,"o":"m 43 20 l 78 131 q 275 308 191 210 q 376 517 376 428 q 330 612 376 579 q 227 642 290 642 q 100 595 164 642 l 75 604 q 118 725 88 648 q 282 766 188 766 q 437 717 375 766 q 505 563 505 662 q 408 324 505 444 q 216 138 359 262 q 267 134 228 137 q 317 132 298 132 q 514 142 416 132 l 528 126 l 503 -4 q 282 0 362 1 q 50 -9 198 -1 l 43 20 z "},"3":{"ha":576,"x_min":41,"x_max":509,"o":"m 41 41 q 87 178 66 105 l 114 178 q 250 97 144 97 q 336 118 299 97 q 403 215 403 155 q 351 309 403 273 q 244 339 305 339 q 180 332 215 339 l 168 349 l 195 435 q 296 467 250 437 q 349 551 349 501 q 235 653 349 650 q 114 606 167 654 l 93 614 l 122 730 q 275 766 197 767 q 405 727 350 766 q 468 607 468 682 q 435 504 468 552 q 358 439 404 461 q 509 260 509 392 q 372 20 509 134 q 220 -27 317 -27 q 41 41 114 -27 z "},"4":{"ha":576,"x_min":32,"x_max":536,"o":"m 32 195 l 46 343 q 323 749 137 566 q 453 767 398 767 l 453 328 l 536 328 l 518 195 l 453 195 l 453 4 l 336 -21 l 336 195 l 32 195 m 146 328 l 336 328 l 336 618 q 146 328 201 496 z "},"5":{"ha":576,"x_min":39,"x_max":511,"o":"m 39 36 l 85 178 l 113 178 q 167 115 130 140 q 243 90 204 90 q 359 126 315 90 q 404 218 404 161 q 231 350 404 350 q 127 326 175 350 l 103 336 q 115 530 115 438 q 100 732 117 638 l 110 745 q 288 739 227 739 q 496 753 406 739 l 511 738 q 482 615 501 660 q 294 600 404 600 l 204 604 q 205 570 204 597 q 205 530 205 544 q 204 460 205 503 q 286 471 246 471 q 447 417 387 471 q 507 271 507 363 q 422 55 507 140 q 220 -27 339 -27 q 39 36 112 -27 z "},"6":{"ha":576,"x_min":33,"x_max":545,"o":"m 33 258 q 133 566 33 422 q 378 767 230 706 q 432 744 401 761 l 482 717 l 471 693 q 281 593 375 687 q 167 393 186 498 q 230 451 219 443 q 322 490 281 490 q 483 430 420 490 q 545 275 545 370 q 470 68 545 157 q 272 -27 391 -27 q 98 51 163 -27 q 33 258 33 128 m 158 232 q 207 136 158 173 q 311 102 251 102 q 400 132 366 102 q 433 215 433 162 q 387 322 433 279 q 288 364 344 364 q 196 331 231 364 q 158 232 158 296 z "},"7":{"ha":576,"x_min":45,"x_max":533,"o":"m 45 633 q 93 791 45 645 l 119 791 q 178 747 136 757 q 318 739 212 739 q 511 755 400 739 l 533 728 q 389 381 461 555 q 304 50 304 159 l 304 12 q 187 -28 267 -1 l 163 -16 q 248 306 172 133 q 392 602 319 454 q 245 597 317 597 q 121 602 153 597 q 45 633 62 608 z "},"8":{"ha":576,"x_min":33,"x_max":536,"o":"m 33 182 q 158 378 33 295 q 61 511 66 422 q 133 691 56 616 q 314 766 210 766 q 453 720 404 766 q 503 590 503 674 q 465 484 503 532 q 397 421 446 460 q 494 363 464 394 q 536 249 536 320 q 453 56 536 137 q 243 -27 368 -27 q 90 31 146 -27 q 33 182 33 90 m 151 208 q 189 122 151 157 q 285 87 227 87 q 376 118 338 87 q 415 199 415 149 q 233 339 415 286 q 151 208 151 280 m 178 575 q 317 457 178 498 q 369 500 347 469 q 389 566 390 532 q 356 635 387 608 q 279 661 325 661 q 209 636 240 661 q 178 575 178 611 z "},"9":{"ha":576,"x_min":32,"x_max":543,"o":"m 32 464 q 106 671 32 582 q 304 766 185 766 q 478 689 413 766 q 543 481 543 611 q 444 173 543 317 q 199 -28 346 33 q 144 -5 175 -22 q 94 22 119 8 l 106 46 q 296 147 201 52 q 410 346 390 240 q 347 288 357 296 q 254 249 296 249 q 94 309 156 249 q 32 464 32 368 m 143 524 q 189 416 143 460 q 289 375 233 375 q 380 408 346 375 q 418 507 418 443 q 370 604 418 566 q 265 637 326 637 q 177 607 210 637 q 143 524 143 577 z "},"\r":{"ha":385,"x_min":0,"x_max":0,"o":""}," ":{"ha":385,"x_min":0,"x_max":0,"o":""},"!":{"ha":463,"x_min":45,"x_max":250,"o":"m 45 68 l 45 79 l 142 179 l 153 176 q 250 87 199 128 l 250 73 l 165 -21 l 143 -21 q 45 68 112 9 m 64 734 q 146 758 78 738 q 229 774 195 774 q 230 743 229 763 q 231 713 231 723 q 155 244 231 341 l 132 244 q 89 486 111 366 q 64 734 66 626 z "},"\"":{"ha":463,"x_min":78,"x_max":504,"o":"m 78 486 l 78 500 q 131 700 131 589 q 126 774 131 749 l 136 800 l 256 861 q 281 843 263 855 q 168 515 267 675 q 106 481 134 481 q 78 486 91 481 m 301 486 l 301 500 q 354 700 354 589 q 350 774 354 749 l 359 800 l 479 861 q 504 843 487 855 q 392 515 490 675 q 329 481 357 481 q 301 486 315 481 z "},"#":{"ha":576,"x_min":0,"x_max":566,"o":"m 0 243 l 0 314 l 135 314 l 153 458 l 28 458 l 28 529 l 161 529 l 197 753 l 269 753 l 233 529 l 376 529 l 412 753 l 484 753 l 449 529 l 566 529 l 566 458 l 440 458 l 421 314 l 538 314 l 538 243 l 412 243 l 376 0 l 306 0 l 340 243 l 187 243 l 153 0 l 81 0 l 117 243 l 0 243 m 205 314 l 350 314 l 368 458 l 225 458 l 205 314 z "},"$":{"ha":576,"x_min":36,"x_max":534,"o":"m 36 49 l 107 189 l 134 182 q 175 113 134 138 q 268 89 213 89 l 268 338 q 130 401 148 389 q 62 535 62 449 q 127 695 62 627 q 268 778 184 756 l 268 851 l 319 851 l 319 783 q 518 726 433 783 l 463 603 l 436 607 q 395 659 431 640 q 319 676 363 676 l 319 457 q 460 387 431 408 q 534 260 534 334 q 468 83 534 162 q 319 -16 407 9 l 319 -96 l 268 -96 l 268 -22 q 36 49 115 -22 m 171 572 q 268 476 171 511 l 268 671 q 171 572 171 654 m 319 92 q 421 208 421 106 q 319 317 421 281 l 319 92 z "},"%":{"ha":1000,"x_min":65,"x_max":924,"o":"m 65 493 q 118 689 65 601 q 241 777 171 777 q 363 709 315 777 q 412 535 412 642 q 359 348 412 429 q 233 267 305 267 q 113 328 160 267 q 65 493 65 390 m 158 515 q 183 407 158 450 q 241 364 208 364 q 319 514 319 364 q 292 632 319 581 q 233 681 265 681 q 158 515 158 681 m 265 -16 l 664 774 l 725 774 l 326 -16 l 265 -16 m 576 205 q 629 401 576 313 q 753 489 682 489 q 875 422 826 489 q 924 248 924 355 q 870 60 924 142 q 745 -21 816 -21 q 624 41 671 -21 q 576 205 576 102 m 669 228 q 694 120 669 163 q 753 77 719 77 q 831 227 831 77 q 802 345 831 294 q 745 393 776 393 q 669 228 669 393 z "},"&":{"ha":889,"x_min":30,"x_max":861,"o":"m 35 162 q 126 330 39 253 q 261 423 144 345 q 221 595 220 529 q 284 727 222 676 q 411 773 340 773 q 511 736 471 773 q 555 629 555 696 q 382 423 555 521 q 529 188 445 316 l 602 303 q 636 395 635 357 q 566 458 637 447 l 566 475 l 807 475 l 807 458 q 705 384 743 444 l 559 152 q 724 54 627 54 q 833 117 794 54 l 861 99 q 671 -34 771 -33 q 493 73 578 -35 q 229 -27 392 -26 q 90 16 141 -28 q 35 162 30 65 m 154 189 q 192 87 155 132 q 302 37 234 36 q 384 58 337 37 q 458 108 430 79 q 378 216 441 123 q 279 378 306 321 q 154 189 153 298 m 314 610 q 358 466 314 558 q 443 523 423 505 q 493 618 481 559 q 496 646 496 633 q 472 706 496 684 q 418 726 450 726 q 346 697 375 726 q 314 610 314 665 z "},"'":{"ha":269,"x_min":8,"x_max":211,"o":"m 8 486 l 8 500 q 61 700 61 589 q 57 774 61 749 l 66 800 l 186 861 q 211 843 194 855 q 98 515 197 675 q 36 481 64 481 q 8 486 21 481 z "},"(":{"ha":346,"x_min":24,"x_max":329,"o":"m 24 366 q 74 616 24 486 q 207 847 123 743 q 310 892 262 879 l 321 868 q 155 370 155 653 q 329 -140 155 67 l 311 -161 q 184 -98 234 -138 q 24 366 24 132 z "},")":{"ha":346,"x_min":17,"x_max":322,"o":"m 17 871 l 35 892 q 161 829 112 868 q 322 366 322 599 q 272 115 322 245 q 139 -117 222 -13 q 36 -161 84 -148 l 25 -138 q 191 361 191 77 q 17 871 191 664 z "},"*":{"ha":576,"x_min":56,"x_max":519,"o":"m 57 558 q 61 600 57 562 q 250 642 168 604 q 64 688 184 675 q 57 728 56 704 q 82 787 58 760 q 139 814 106 814 q 269 676 178 739 q 210 861 262 771 q 289 893 238 893 q 366 861 334 893 q 304 671 308 768 q 437 815 408 749 q 497 783 475 815 q 517 715 517 755 q 514 686 517 705 q 326 644 429 691 q 514 597 359 612 q 519 571 519 586 q 496 506 519 536 q 440 467 472 475 q 304 610 395 546 q 363 428 308 531 q 281 392 338 392 q 210 425 238 392 q 268 612 273 539 q 136 471 176 554 q 81 498 105 471 q 57 558 57 526 z "},"+":{"ha":847,"x_min":122,"x_max":766,"o":"m 122 292 l 122 375 l 399 375 l 399 667 l 482 667 l 482 375 l 766 375 l 766 292 l 482 292 l 482 0 l 399 0 l 399 292 l 122 292 z "},",":{"ha":307,"x_min":56,"x_max":258,"o":"m 56 60 l 56 78 l 153 178 q 258 39 258 105 q 234 -79 258 -27 q 176 -171 220 -109 q 93 -227 144 -200 l 65 -207 q 125 -56 125 -95 q 56 60 125 11 z "},"-":{"ha":385,"x_min":25,"x_max":370,"o":"m 25 339 l 75 456 l 358 456 l 370 435 l 311 311 l 35 311 l 25 339 z "},".":{"ha":307,"x_min":49,"x_max":256,"o":"m 49 62 l 49 79 l 139 175 l 155 175 l 256 92 l 253 69 l 168 -22 l 151 -22 l 49 62 z "},"/":{"ha":498,"x_min":7,"x_max":509,"o":"m 7 -18 l 437 775 l 509 775 l 74 -18 l 7 -18 z "},":":{"ha":385,"x_min":49,"x_max":256,"o":"m 49 62 l 49 79 l 139 175 l 155 175 l 256 92 l 253 69 l 168 -22 l 151 -22 l 49 62 m 49 452 l 49 468 l 139 564 l 155 564 l 256 481 l 253 458 l 168 367 l 151 367 l 49 452 z "},";":{"ha":385,"x_min":49,"x_max":258,"o":"m 49 452 l 49 468 l 139 564 l 155 564 l 256 481 l 253 458 l 168 367 l 151 367 l 49 452 m 56 60 l 56 78 l 153 178 q 258 39 258 105 q 234 -79 258 -27 q 176 -171 220 -109 q 93 -227 144 -200 l 65 -207 q 125 -56 125 -95 q 56 60 125 11 z "},"<":{"ha":778,"x_min":90,"x_max":688,"o":"m 90 292 l 90 366 l 688 631 l 688 543 l 199 328 l 688 98 l 688 11 l 90 292 z "},"=":{"ha":847,"x_min":122,"x_max":766,"o":"m 122 163 l 122 246 l 766 246 l 766 163 l 122 163 m 122 357 l 122 440 l 766 440 l 766 357 l 122 357 z "},">":{"ha":778,"x_min":90,"x_max":688,"o":"m 90 11 l 90 98 l 579 314 l 90 543 l 90 631 l 688 350 l 688 277 l 90 11 z "},"?":{"ha":615,"x_min":52,"x_max":403,"o":"m 52 633 q 80 694 61 653 q 110 754 100 734 q 218 771 165 771 q 403 614 403 771 q 358 489 403 541 q 302 431 330 460 q 271 364 271 397 q 300 311 271 334 q 203 218 288 284 l 179 224 q 142 323 140 262 q 170 394 142 356 q 228 458 182 410 q 279 555 279 513 q 175 646 279 646 q 110 635 138 646 q 69 618 90 627 l 52 633 m 118 62 l 118 79 l 208 175 l 225 175 l 325 92 l 322 69 l 237 -22 l 221 -22 l 118 62 z "},"@":{"ha":1181,"x_min":63,"x_max":1118,"o":"m 63 435 q 222 847 63 692 q 614 998 378 998 q 975 857 834 998 q 1118 472 1118 712 q 1023 189 1118 280 q 880 133 967 134 q 723 252 758 132 q 551 136 683 136 q 478 149 511 136 q 359 259 400 176 q 326 420 326 325 q 486 690 326 636 q 560 702 524 703 q 699 631 655 701 l 708 614 l 708 686 l 818 686 l 821 326 q 890 236 825 237 q 992 392 972 235 q 998 475 998 433 q 977 629 997 558 q 841 826 943 755 q 610 895 743 894 q 442 863 522 895 q 183 436 184 759 q 298 100 182 224 q 628 -27 418 -28 q 745 -17 703 -26 l 813 -2 l 813 -105 l 759 -119 q 632 -130 712 -130 q 217 21 370 -130 q 63 435 63 173 m 440 418 q 570 222 441 220 q 672 277 636 222 q 704 414 704 328 q 659 576 704 519 q 574 616 628 616 q 446 487 469 617 q 440 418 440 455 z "},"A":{"ha":996,"x_min":-2,"x_max":989,"o":"m -2 0 q 181 317 68 81 l 494 969 l 814 295 q 989 0 895 123 l 758 0 q 722 151 751 76 q 658 298 713 177 l 315 298 q 262 152 272 185 q 233 0 235 68 l -2 0 m 366 417 l 604 417 l 486 701 l 366 417 z "},"B":{"ha":718,"x_min":88,"x_max":663,"o":"m 88 0 q 121 275 121 119 l 121 682 q 88 955 121 823 l 182 955 q 463 926 375 955 q 618 719 618 873 q 472 506 618 590 q 663 265 663 436 q 490 33 663 92 q 174 0 391 0 l 88 0 m 267 93 q 506 277 506 113 q 431 425 506 374 q 267 469 368 469 l 267 93 m 267 541 q 461 705 461 551 q 267 863 461 852 l 267 541 z "},"C":{"ha":857,"x_min":55,"x_max":835,"o":"m 55 460 q 198 827 55 686 q 566 969 342 969 q 811 930 681 969 l 811 767 q 549 854 671 854 q 298 742 390 854 q 212 475 212 638 q 292 214 212 316 q 535 101 380 101 q 835 216 675 101 l 827 58 q 530 -14 663 -14 q 187 118 319 -14 q 55 460 55 251 z "},"D":{"ha":880,"x_min":85,"x_max":817,"o":"m 85 0 q 119 294 119 111 l 119 638 q 85 955 119 805 l 183 955 q 817 470 817 955 q 680 129 817 257 q 332 2 546 5 l 85 0 m 265 104 q 661 471 661 136 q 550 751 661 649 q 265 851 444 850 l 265 104 z "},"E":{"ha":694,"x_min":101,"x_max":686,"o":"m 101 0 q 134 319 134 107 l 134 652 q 101 955 134 810 l 627 955 l 553 801 q 349 852 456 852 q 281 850 335 852 l 281 540 l 593 540 l 505 386 q 281 436 416 430 l 281 104 q 490 123 452 116 q 686 188 594 139 l 607 0 l 101 0 z "},"F":{"ha":648,"x_min":87,"x_max":612,"o":"m 87 0 q 119 284 119 122 l 119 694 q 87 955 119 850 l 612 955 l 538 801 q 334 852 443 852 q 266 850 320 852 l 266 540 l 578 540 l 490 386 q 381 425 427 415 q 266 436 345 433 l 266 274 q 299 0 266 119 l 87 0 z "},"G":{"ha":972,"x_min":52,"x_max":900,"o":"m 52 459 q 199 829 52 686 q 571 969 344 969 q 814 930 682 969 l 814 766 q 542 854 688 854 q 294 739 387 854 q 209 473 209 633 q 287 212 209 313 q 528 101 373 101 q 721 142 607 101 l 721 265 q 688 476 721 380 l 900 476 q 871 347 876 402 q 867 212 867 312 q 882 42 867 108 q 549 -14 707 -14 q 192 110 327 -14 q 52 459 52 239 z "},"H":{"ha":949,"x_min":93,"x_max":860,"o":"m 93 0 q 125 279 125 113 l 125 656 q 93 955 125 827 l 305 955 q 272 723 272 825 l 272 547 l 680 547 l 680 671 q 648 955 680 814 l 860 955 q 827 680 827 832 l 827 325 q 860 0 827 131 l 648 0 q 680 189 680 114 l 680 428 l 272 428 l 272 306 q 305 0 272 146 l 93 0 z "},"I":{"ha":393,"x_min":93,"x_max":305,"o":"m 93 0 q 125 245 125 126 l 125 673 q 93 955 125 833 l 305 955 q 272 673 272 833 l 272 252 q 305 0 272 126 l 93 0 z "},"J":{"ha":509,"x_min":3,"x_max":416,"o":"m 3 -203 q 211 29 167 -119 q 236 351 236 113 l 236 851 q 33 827 153 849 l 80 955 l 416 955 q 376 639 376 844 q 379 485 376 584 q 382 347 382 385 q 377 100 382 157 q 304 -119 362 -43 q 82 -214 231 -214 q 3 -203 35 -214 z "},"K":{"ha":857,"x_min":82,"x_max":862,"o":"m 82 0 q 115 267 115 106 l 115 705 q 82 955 115 837 l 294 955 q 261 729 261 850 l 261 538 q 430 737 345 637 q 572 955 527 857 l 807 955 q 604 753 710 874 q 420 532 599 747 q 636 261 616 286 q 862 0 759 111 l 609 0 q 558 114 595 58 q 483 216 541 142 l 261 497 l 261 254 q 294 0 261 115 l 82 0 z "},"L":{"ha":671,"x_min":88,"x_max":654,"o":"m 88 0 q 121 287 121 109 l 121 695 q 88 955 121 853 l 300 955 q 267 699 267 836 l 267 104 q 654 188 471 118 l 575 0 l 88 0 z "},"M":{"ha":1157,"x_min":24,"x_max":1132,"o":"m 24 955 l 248 955 q 278 878 253 913 q 332 811 279 875 l 591 496 l 823 787 q 884 866 870 846 q 926 955 911 908 l 1132 955 q 1063 812 1081 885 q 1050 657 1050 755 l 1050 299 q 1083 0 1050 118 l 870 0 q 903 304 903 132 l 903 685 l 587 281 l 271 668 l 271 276 q 304 0 271 131 l 92 0 q 125 296 125 119 l 125 830 l 24 955 z "},"N":{"ha":1019,"x_min":27,"x_max":927,"o":"m 27 955 l 250 955 q 366 779 288 888 l 765 228 l 765 634 q 732 955 765 829 l 927 955 q 894 631 894 809 l 895 273 q 927 0 895 113 l 739 0 q 624 180 713 60 l 273 655 l 273 304 q 306 0 273 115 l 111 0 q 143 304 143 126 l 143 818 l 27 955 z "},"O":{"ha":1088,"x_min":55,"x_max":1033,"o":"m 55 484 q 201 833 55 695 q 559 969 346 969 q 902 827 768 969 q 1033 476 1033 687 q 895 126 1033 267 q 547 -14 756 -14 q 193 126 330 -14 q 55 484 55 266 m 212 512 q 302 231 212 349 q 560 101 401 101 q 791 205 702 101 q 876 448 876 304 q 785 724 876 605 q 534 854 686 854 q 299 754 390 854 q 212 512 212 658 z "},"P":{"ha":648,"x_min":52,"x_max":619,"o":"m 52 0 q 84 227 84 127 l 84 648 q 52 955 84 806 l 284 955 q 619 672 619 955 q 499 439 619 505 q 231 382 418 395 l 231 249 q 264 0 231 148 l 52 0 m 231 456 q 397 498 345 463 q 463 652 463 544 q 420 798 463 739 q 286 863 372 863 l 231 863 l 231 456 z "},"Q":{"ha":1088,"x_min":57,"x_max":1079,"o":"m 57 484 q 203 834 57 696 q 559 969 346 969 q 903 827 770 969 q 1034 476 1034 688 q 822 65 1034 205 q 934 -77 892 -36 q 1079 -182 985 -128 q 991 -197 1029 -197 q 800 -138 892 -197 q 646 -7 741 -100 q 540 -14 585 -14 q 193 132 331 -14 q 57 484 57 275 m 214 509 q 304 231 214 351 q 557 101 403 101 q 791 203 700 101 q 878 445 878 300 q 788 724 878 605 q 535 854 690 854 q 299 754 389 854 q 214 509 214 658 z "},"R":{"ha":787,"x_min":99,"x_max":817,"o":"m 99 0 q 132 283 132 104 l 132 686 q 99 955 132 807 l 204 955 q 504 915 405 955 q 659 680 659 852 q 473 435 659 515 q 817 0 608 218 l 644 0 q 278 434 474 154 l 278 301 q 311 0 278 139 l 99 0 m 278 476 q 432 530 374 486 q 502 673 502 582 q 278 863 502 846 l 278 476 z "},"S":{"ha":648,"x_min":71,"x_max":584,"o":"m 71 30 l 71 214 q 152 133 116 157 q 260 101 199 101 q 376 142 328 101 q 427 250 427 184 q 336 389 427 319 l 167 517 q 76 707 76 602 q 168 902 76 829 q 377 969 252 969 q 546 934 461 969 l 546 764 q 467 829 490 815 q 369 854 425 854 q 273 820 311 854 q 233 728 233 785 q 323 593 233 663 l 493 463 q 584 264 584 374 q 481 54 584 130 q 250 -14 388 -14 q 71 30 161 -14 z "},"T":{"ha":787,"x_min":28,"x_max":780,"o":"m 28 801 l 79 955 l 780 955 l 733 801 q 608 843 661 833 q 477 851 567 850 l 477 319 q 510 0 477 111 l 298 0 q 331 324 331 100 l 331 851 q 177 838 227 844 q 28 801 94 825 z "},"U":{"ha":996,"x_min":86,"x_max":899,"o":"m 86 955 l 298 955 q 265 687 265 833 l 265 452 q 498 101 265 101 q 719 382 719 101 l 719 687 q 686 955 719 825 l 899 955 q 865 703 865 849 l 865 384 q 867 191 865 215 q 899 0 872 78 l 733 0 l 733 100 q 591 14 648 36 q 427 -14 522 -14 q 167 146 240 -14 q 115 478 115 258 q 117 588 115 518 q 119 685 119 658 q 86 955 119 823 z "},"V":{"ha":972,"x_min":21,"x_max":945,"o":"m 21 955 l 292 955 q 283 900 283 918 q 382 541 283 821 l 489 254 q 610 543 549 399 q 712 897 712 805 q 705 955 712 918 l 945 955 q 795 656 862 830 l 541 0 l 422 0 l 172 688 q 21 955 110 859 z "},"W":{"ha":1181,"x_min":11,"x_max":1168,"o":"m 11 955 l 235 955 q 229 861 229 917 q 254 693 229 799 l 358 269 l 592 969 l 817 273 q 902 559 860 416 q 958 865 958 762 q 947 955 958 879 l 1168 955 q 1065 655 1114 832 l 888 0 l 770 0 l 589 556 l 410 0 l 291 0 l 117 668 q 11 955 77 819 z "},"X":{"ha":857,"x_min":14,"x_max":848,"o":"m 14 0 q 196 231 105 96 q 355 482 243 299 q 36 955 163 795 l 263 955 q 437 616 304 839 q 529 782 504 733 q 603 955 574 871 l 819 955 q 510 493 686 779 q 669 237 625 303 q 848 0 758 103 l 609 0 q 535 181 579 100 q 429 355 522 205 l 327 183 q 256 0 275 86 l 14 0 z "},"Y":{"ha":810,"x_min":18,"x_max":799,"o":"m 18 955 l 245 955 q 255 882 246 905 q 289 814 258 873 l 412 576 l 517 756 q 584 955 578 869 l 799 955 q 622 705 711 867 q 481 435 552 570 l 481 236 q 515 0 481 113 l 302 0 q 335 237 335 126 l 335 435 q 193 701 264 568 q 18 955 99 870 z "},"Z":{"ha":764,"x_min":42,"x_max":745,"o":"m 42 0 q 479 851 264 404 l 420 851 q 231 836 304 851 q 52 767 142 818 l 127 955 l 696 955 l 270 104 l 331 104 q 745 188 587 104 l 672 0 l 42 0 z "},"[":{"ha":346,"x_min":69,"x_max":275,"o":"m 69 -144 l 69 859 l 275 859 l 275 802 l 161 802 l 161 -83 l 275 -83 l 275 -144 l 69 -144 z "},"\\":{"ha":383,"x_min":0,"x_max":367,"o":"m 0 810 l 109 810 l 367 0 l 268 0 l 0 810 z "},"]":{"ha":346,"x_min":71,"x_max":277,"o":"m 71 -83 l 184 -83 l 184 802 l 71 802 l 71 859 l 277 859 l 277 -144 l 71 -144 l 71 -83 z "},"^":{"ha":534,"x_min":18,"x_max":521,"o":"m 18 296 l 233 771 l 306 771 l 521 296 l 440 296 l 269 681 l 98 296 l 18 296 z "},"_":{"ha":700,"x_min":0,"x_max":707,"o":"m 0 -98 l 707 -98 l 707 -175 l 0 -175 l 0 -98 z "},"`":{"ha":787,"x_min":248,"x_max":476,"o":"m 248 939 l 412 939 l 415 916 q 434 839 418 889 q 460 768 451 789 l 476 733 l 383 733 l 369 760 q 326 834 345 805 q 271 913 296 884 l 248 939 z "},"a":{"ha":578,"x_min":39,"x_max":530,"o":"m 39 142 q 101 268 39 214 q 237 345 147 308 q 371 395 304 370 l 371 431 q 247 573 371 573 q 102 519 191 573 l 139 647 q 287 679 224 679 q 472 587 421 679 q 510 370 510 518 q 508 278 510 340 q 506 186 506 216 q 530 0 506 65 l 371 0 l 371 64 l 266 -14 l 235 -14 q 227 -14 231 -14 q 100 21 151 -14 q 39 142 39 63 m 176 181 q 293 92 176 92 q 371 99 326 92 l 371 283 l 197 283 q 176 181 176 220 z "},"b":{"ha":671,"x_min":54,"x_max":635,"o":"m 54 0 q 80 241 80 85 l 80 656 q 54 912 80 833 l 239 950 q 212 781 212 831 l 212 552 l 317 669 q 400 679 366 679 q 581 596 519 679 q 635 399 635 523 q 490 75 635 169 q 139 0 375 0 l 54 0 m 212 102 q 309 94 262 94 q 499 344 499 94 q 340 553 499 553 q 212 518 283 553 l 212 102 z "},"c":{"ha":578,"x_min":43,"x_max":543,"o":"m 43 317 q 140 579 43 479 q 400 678 237 678 q 528 664 480 678 l 522 510 q 454 564 475 551 q 372 585 418 585 q 227 511 280 585 q 179 351 179 446 q 228 171 179 241 q 389 92 284 92 q 543 137 460 92 l 491 9 q 361 -14 425 -14 q 127 78 213 -14 q 43 317 43 168 z "},"d":{"ha":694,"x_min":58,"x_max":640,"o":"m 58 279 q 151 554 58 439 q 407 679 251 679 q 481 668 449 679 l 481 714 q 455 912 481 826 l 640 950 q 614 728 614 852 l 614 201 q 640 0 614 87 l 481 0 l 481 95 l 398 2 q 319 -14 351 -14 q 121 70 189 -14 q 58 279 58 146 m 195 334 q 375 92 195 92 q 481 131 426 92 l 481 545 q 368 585 435 585 q 195 334 195 585 z "},"e":{"ha":602,"x_min":46,"x_max":557,"o":"m 46 327 q 112 566 46 468 q 322 679 188 679 q 504 586 441 679 q 557 394 557 509 q 557 382 557 389 l 555 315 l 182 315 q 389 92 212 92 q 541 128 457 92 l 491 5 q 364 -14 414 -14 q 128 83 214 -14 q 46 327 46 175 m 186 409 l 446 409 l 446 429 q 446 435 446 432 q 414 535 446 493 q 318 585 378 585 q 216 528 252 585 q 186 409 186 479 z "},"f":{"ha":393,"x_min":56,"x_max":479,"o":"m 56 570 l 106 665 l 126 665 q 171 873 126 807 q 361 956 225 956 q 479 935 407 956 l 447 804 q 349 861 396 861 q 258 722 258 861 q 258 692 258 710 q 259 665 258 671 l 393 665 l 393 570 l 259 570 l 259 202 q 285 0 259 78 l 100 0 q 126 203 126 66 l 126 570 l 56 570 z "},"g":{"ha":602,"x_min":52,"x_max":625,"o":"m 52 -109 q 104 -29 52 -79 q 177 34 140 3 q 96 50 114 42 q 52 111 52 66 q 108 186 52 142 q 188 241 148 213 q 58 442 58 307 q 126 610 58 541 q 294 679 195 679 q 423 639 347 679 l 485 639 q 625 652 539 639 l 610 545 l 500 546 q 526 442 526 486 q 459 285 526 353 q 303 218 393 218 q 241 225 262 218 q 201 176 201 199 q 319 135 201 135 q 410 139 344 135 q 581 -3 581 139 q 477 -171 581 -117 q 273 -213 397 -213 q 52 -109 52 -213 m 180 469 q 210 364 180 410 q 302 313 245 313 q 378 350 350 313 q 403 433 403 383 q 373 535 403 491 q 285 585 340 585 q 209 551 237 585 q 180 469 180 517 m 187 -41 q 311 -107 187 -107 q 445 -33 445 -107 q 409 22 445 9 q 338 31 387 31 l 227 31 q 187 -41 187 -6 z "},"h":{"ha":671,"x_min":57,"x_max":614,"o":"m 57 0 q 83 224 83 75 l 83 729 q 57 912 83 823 l 241 950 q 216 753 216 840 l 216 524 l 320 649 q 424 679 383 679 q 567 578 532 679 q 588 389 587 522 q 587 305 588 360 q 585 221 585 248 q 614 0 585 87 l 429 0 q 455 181 455 90 l 455 397 q 444 505 455 476 q 356 553 422 553 q 216 491 298 553 l 216 238 q 241 0 216 78 l 57 0 z "},"i":{"ha":301,"x_min":62,"x_max":247,"o":"m 62 0 q 88 198 88 81 l 88 447 q 85 559 88 535 q 62 665 81 604 l 247 665 q 223 559 227 589 q 220 453 220 534 l 220 198 q 247 0 220 80 l 62 0 m 66 836 q 90 907 66 877 q 155 940 115 940 q 218 906 192 940 q 241 836 241 875 q 219 766 241 798 q 156 733 194 733 q 90 765 115 733 q 66 836 66 794 z "},"j":{"ha":301,"x_min":-14,"x_max":250,"o":"m -14 -207 q 72 -94 49 -155 q 91 49 91 -41 l 91 459 q 64 665 91 576 l 250 665 q 217 373 217 552 q 220 225 217 322 q 223 85 223 128 q 210 -77 223 -24 q 121 -207 188 -164 l -14 -207 m 70 836 q 93 907 70 877 q 157 940 118 940 q 221 906 195 940 q 245 836 245 875 q 222 766 245 798 q 159 733 197 733 q 93 765 118 733 q 70 836 70 794 z "},"k":{"ha":602,"x_min":58,"x_max":614,"o":"m 58 0 q 82 98 77 53 q 84 203 84 121 l 84 760 q 58 912 84 842 l 243 950 q 216 753 216 861 l 216 354 q 317 497 267 425 q 383 661 383 602 q 383 665 383 663 l 605 665 q 467 526 526 604 q 353 358 457 514 q 475 172 445 216 q 614 0 546 71 l 416 0 q 416 3 416 1 q 328 178 416 39 q 216 347 273 262 l 216 168 q 219 81 216 98 q 243 0 222 55 l 58 0 z "},"l":{"ha":301,"x_min":60,"x_max":245,"o":"m 60 0 q 87 203 87 101 l 87 696 q 60 912 87 800 l 245 950 q 219 703 219 811 l 219 187 q 245 0 219 90 l 60 0 z "},"m":{"ha":1042,"x_min":58,"x_max":987,"o":"m 58 0 q 84 199 84 85 l 84 428 q 58 665 84 576 l 216 665 l 216 536 q 307 638 296 629 q 426 679 355 679 q 584 530 557 679 l 682 635 q 806 679 734 679 q 937 599 902 679 q 961 436 961 545 q 960 199 961 199 q 960 216 960 199 q 987 0 962 91 l 802 0 q 829 188 829 85 l 829 420 q 812 514 829 486 q 726 553 789 553 q 589 500 667 553 l 589 143 q 615 0 589 90 l 430 0 q 456 180 456 63 l 456 404 q 444 508 456 479 q 357 553 422 553 q 216 501 302 553 l 217 181 q 243 0 217 72 l 58 0 z "},"n":{"ha":671,"x_min":62,"x_max":619,"o":"m 62 0 q 85 94 81 62 q 88 192 88 118 l 88 442 q 62 665 88 564 l 220 665 l 220 545 l 323 662 q 412 679 371 679 q 562 595 518 679 q 597 395 597 528 l 597 181 q 619 0 597 65 l 434 0 q 460 184 460 63 l 460 412 q 444 511 460 481 q 355 553 420 553 q 220 509 305 553 l 220 205 q 247 0 220 85 l 62 0 z "},"o":{"ha":694,"x_min":38,"x_max":660,"o":"m 38 318 q 125 572 38 470 q 367 679 217 679 q 584 579 502 679 q 660 349 660 486 q 574 98 660 202 q 340 -14 484 -14 q 119 86 205 -14 q 38 318 38 181 m 174 363 q 225 175 174 260 q 371 80 283 80 q 380 80 375 80 l 410 81 q 524 316 524 157 q 472 494 524 414 q 319 585 413 585 q 290 583 310 585 q 174 363 174 524 z "},"p":{"ha":694,"x_min":64,"x_max":646,"o":"m 64 -207 q 91 -3 91 -119 l 91 460 q 64 665 91 573 l 223 665 l 223 549 q 302 641 262 595 q 406 679 343 679 q 595 550 530 679 q 646 311 646 448 q 593 87 646 172 q 397 -14 530 -14 q 223 52 306 -14 l 223 -41 q 250 -207 223 -131 l 64 -207 m 223 153 q 342 92 273 92 q 510 338 510 92 q 473 480 510 418 q 356 553 430 553 q 223 513 300 553 l 223 153 z "},"q":{"ha":671,"x_min":39,"x_max":621,"o":"m 39 279 q 165 583 39 479 q 485 679 281 679 q 621 668 540 679 q 595 509 595 579 l 595 35 q 621 -207 595 -118 l 436 -207 q 462 -46 462 -157 l 462 112 l 363 2 q 283 -14 318 -14 q 98 76 163 -14 q 39 279 39 157 m 175 323 q 207 180 175 235 q 328 111 247 111 q 462 154 378 111 l 462 573 q 383 585 412 585 q 221 506 274 585 q 175 323 175 438 z "},"r":{"ha":463,"x_min":64,"x_max":477,"o":"m 64 0 q 90 166 90 96 l 90 429 q 64 665 90 567 l 222 665 l 222 545 l 326 660 q 415 679 377 679 q 477 666 446 679 l 449 522 q 357 553 401 553 q 222 509 311 553 l 222 199 q 249 0 222 94 l 64 0 z "},"s":{"ha":440,"x_min":27,"x_max":410,"o":"m 27 9 l 27 174 q 184 80 121 80 q 247 103 220 80 q 273 161 273 126 q 214 254 273 203 q 102 348 104 345 q 42 485 42 412 q 114 627 42 571 q 269 679 180 679 q 393 653 327 679 l 393 524 q 271 585 323 585 q 208 566 235 585 q 178 509 178 544 q 238 413 178 465 l 349 318 q 410 178 410 254 q 338 33 410 85 q 180 -14 275 -14 q 27 9 134 -14 z "},"t":{"ha":417,"x_min":9,"x_max":437,"o":"m 9 570 l 235 804 l 235 665 l 393 665 l 393 570 l 235 570 l 235 262 q 245 157 235 186 q 326 105 264 105 q 437 135 383 105 l 387 6 q 259 -14 317 -14 q 115 74 144 -14 q 103 259 103 112 l 103 570 l 9 570 z "},"u":{"ha":671,"x_min":50,"x_max":607,"o":"m 50 665 l 235 665 q 208 498 208 594 l 208 247 q 229 145 208 173 q 323 111 253 111 q 448 146 375 111 l 448 481 q 422 665 448 581 l 607 665 q 581 532 581 579 l 581 210 q 607 0 581 83 l 448 0 l 448 113 l 349 3 q 260 -14 300 -14 q 109 50 150 -14 q 76 217 77 100 q 76 243 76 229 q 77 316 76 273 q 79 416 79 385 q 50 665 79 567 z "},"v":{"ha":602,"x_min":3,"x_max":611,"o":"m 3 665 l 196 665 l 194 623 q 194 616 194 619 q 250 374 194 545 l 330 147 q 420 399 375 273 q 466 648 466 544 q 466 665 466 656 l 611 665 q 469 336 538 552 q 373 0 454 288 l 241 0 q 145 342 184 222 q 3 665 81 534 z "},"w":{"ha":880,"x_min":1,"x_max":877,"o":"m 1 665 l 194 665 q 191 610 191 634 q 224 395 191 526 l 281 186 l 397 665 l 510 665 l 637 186 l 691 387 q 722 592 722 508 q 713 665 722 624 l 877 665 q 777 409 820 580 l 672 0 l 559 0 l 432 463 l 314 0 l 201 0 q 123 338 162 170 q 1 665 71 538 z "},"x":{"ha":602,"x_min":-7,"x_max":616,"o":"m -7 0 q 121 166 52 66 q 236 342 178 254 q 129 509 182 425 q 6 665 65 604 l 200 665 q 310 450 230 578 q 376 553 370 542 q 422 665 411 612 l 593 665 q 373 352 525 589 l 488 172 q 616 0 555 70 l 431 0 q 301 239 390 103 q 227 126 243 157 q 180 0 191 62 l -7 0 z "},"y":{"ha":625,"x_min":-9,"x_max":644,"o":"m -9 665 l 176 665 q 250 439 191 589 q 337 222 294 330 q 412 439 374 330 q 453 656 453 570 q 453 665 453 661 l 644 665 q 505 369 576 569 q 385 43 408 96 q 205 -207 307 -130 l 39 -207 q 172 -67 123 -137 q 264 104 213 -8 l 146 393 q -9 665 71 565 z "},"z":{"ha":486,"x_min":12,"x_max":462,"o":"m 12 0 q 288 570 151 241 l 224 570 q 49 523 115 570 l 75 665 l 460 665 q 208 94 351 429 l 253 94 q 462 142 358 94 l 426 0 l 12 0 z "},"{":{"ha":667,"x_min":153,"x_max":471,"o":"m 153 375 q 247 454 222 386 q 262 583 262 497 q 260 665 262 608 q 258 746 258 718 q 289 895 259 847 q 424 958 328 958 q 471 954 446 958 q 353 749 354 924 q 356 655 353 717 q 359 562 359 591 q 340 437 359 479 q 252 375 315 384 q 340 313 315 366 q 359 187 359 271 q 356 96 359 159 q 353 1 353 33 q 471 -204 354 -174 q 424 -208 446 -208 q 289 -145 328 -208 q 258 4 259 -97 q 260 85 258 32 q 262 167 262 142 q 247 296 262 253 q 153 375 222 364 z "},"|":{"ha":175,"x_min":45,"x_max":132,"o":"m 45 0 l 45 810 l 132 810 l 132 0 l 45 0 z "},"}":{"ha":667,"x_min":196,"x_max":514,"o":"m 196 -204 q 314 1 313 -174 q 311 96 314 33 q 307 187 307 159 q 326 313 307 271 q 415 375 351 366 q 326 437 351 384 q 307 562 307 479 q 311 655 307 591 q 314 749 314 717 q 196 954 313 924 q 243 958 221 958 q 378 895 339 958 q 408 746 408 847 q 406 665 408 718 q 404 583 404 608 q 420 454 404 497 q 514 375 445 386 q 420 296 445 364 q 404 167 404 253 q 406 85 404 142 q 408 4 408 32 q 378 -145 408 -97 q 243 -208 339 -208 q 196 -204 221 -208 z "},"~":{"ha":754,"x_min":14,"x_max":733,"o":"m 14 319 q 220 467 97 467 q 383 415 271 467 q 454 390 419 403 q 525 376 496 376 q 667 481 604 376 l 733 437 q 522 277 642 277 q 431 296 481 277 l 361 328 q 224 375 279 375 q 138 340 177 375 q 65 252 111 316 l 14 319 z "},"":{"ha":833,"x_min":28,"x_max":806,"o":"m 28 40 l 28 358 l 138 358 q 194 353 174 358 q 279 276 254 339 q 291 201 291 243 q 260 90 291 132 q 194 45 236 56 q 142 40 172 40 l 28 40 m 70 77 l 138 77 q 216 100 193 77 q 248 201 248 132 q 191 314 248 292 q 137 320 174 320 l 70 320 l 70 77 m 329 40 l 329 358 l 559 358 l 559 320 l 371 320 l 371 223 l 547 223 l 547 186 l 371 186 l 371 77 l 566 77 l 566 40 l 329 40 m 607 40 l 607 358 l 649 358 l 649 77 l 806 77 l 806 40 l 607 40 z "}," ":{"ha":385,"x_min":0,"x_max":0,"o":""},"¡":{"ha":463,"x_min":45,"x_max":250,"o":"m 45 579 l 45 590 q 143 679 75 620 l 165 679 l 250 586 l 250 570 q 153 481 199 530 l 142 479 l 45 579 m 64 -77 q 89 172 66 32 l 132 414 l 155 414 q 231 -54 231 317 q 230 -85 231 -65 q 229 -115 229 -105 q 146 -100 195 -115 q 64 -77 78 -79 z "},"¢":{"ha":787,"x_min":144,"x_max":659,"o":"m 144 471 q 199 680 144 591 q 369 814 261 781 l 397 824 l 397 947 l 498 947 l 498 831 l 539 831 q 605 824 568 831 l 635 818 l 628 662 l 604 681 q 528 722 568 709 l 498 728 l 498 250 l 528 257 q 608 290 566 265 l 659 321 l 592 165 l 550 155 l 498 146 l 498 16 l 397 16 l 397 153 l 374 157 q 202 271 271 176 q 144 471 144 351 m 289 498 q 303 397 289 444 q 372 285 326 322 l 397 265 l 397 713 l 375 698 q 294 558 311 652 q 289 498 289 533 z "},"£":{"ha":576,"x_min":7,"x_max":550,"o":"m 7 0 l 46 146 q 127 315 127 146 q 123 397 127 359 l 29 397 l 21 414 q 52 493 33 441 l 113 493 q 104 571 113 505 q 96 676 96 638 q 157 847 96 787 q 322 905 216 905 q 524 833 458 905 l 450 690 l 424 700 q 311 764 406 764 q 232 730 260 764 q 204 642 204 696 q 215 493 204 596 l 375 493 l 389 479 l 353 397 l 222 397 q 227 334 227 366 q 199 153 227 202 l 550 153 l 524 0 l 200 0 q 21 -14 46 0 l 7 0 z "},"¤":{"ha":787,"x_min":63,"x_max":658,"o":"m 63 705 l 102 744 l 186 661 q 361 720 269 720 q 535 661 452 720 l 618 744 l 658 705 l 574 621 q 632 450 632 541 q 574 275 632 352 l 657 191 l 619 153 l 535 235 q 360 176 448 176 q 186 235 275 176 l 102 153 l 64 191 l 147 275 q 88 450 88 352 q 147 621 88 537 l 63 705 m 149 447 q 211 297 149 359 q 360 236 272 236 q 510 298 448 236 q 572 448 572 360 q 510 597 572 534 q 360 659 448 659 q 210 598 271 659 q 149 447 149 536 z "},"¥":{"ha":787,"x_min":3,"x_max":780,"o":"m 3 955 l 227 955 q 293 758 227 886 l 396 574 l 499 754 q 566 955 564 877 l 780 955 q 605 709 692 868 q 466 442 536 576 l 466 358 l 623 358 l 623 296 l 466 296 l 466 230 l 623 230 l 623 168 l 466 168 q 498 0 478 66 l 283 0 q 317 168 304 75 l 160 168 l 160 230 l 317 230 l 317 296 l 160 296 l 160 358 l 317 358 l 317 437 q 175 707 246 572 q 3 955 91 859 z "},"¦":{"ha":625,"x_min":280,"x_max":345,"o":"m 280 280 l 345 280 l 345 -281 l 280 -281 l 280 280 m 280 345 l 280 905 l 345 905 l 345 345 l 280 345 z "},"§":{"ha":498,"x_min":32,"x_max":471,"o":"m 32 385 q 98 536 32 467 q 53 654 53 589 q 134 820 53 739 q 290 899 212 899 q 443 844 372 899 l 387 718 l 364 725 q 336 769 363 749 q 278 789 309 789 q 197 764 234 789 q 157 693 157 735 q 208 612 157 644 q 311 568 230 598 q 422 510 390 538 q 471 386 471 465 q 404 240 471 317 q 450 125 450 189 q 372 -45 450 35 q 203 -125 294 -125 q 54 -71 112 -125 l 113 56 l 136 47 q 164 4 136 21 q 229 -14 191 -14 q 307 17 277 -14 q 338 90 338 47 q 283 163 338 136 q 183 201 233 182 q 32 385 32 261 m 138 422 q 224 326 138 360 q 326 290 267 309 q 358 355 358 325 q 256 450 358 414 q 165 485 222 461 q 138 422 138 469 z "},"¨":{"ha":787,"x_min":204,"x_max":584,"o":"m 204 827 q 228 884 204 861 q 286 908 252 908 q 344 884 319 908 q 368 827 368 859 q 344 769 368 793 q 286 745 320 745 q 228 768 252 745 q 204 827 204 791 m 419 826 q 443 884 418 860 q 502 908 467 908 q 560 883 536 908 q 583 826 584 858 q 559 768 582 791 q 503 745 537 744 q 419 826 421 747 z "},"©":{"ha":625,"x_min":76,"x_max":661,"o":"m 76 638 q 161 846 76 760 q 368 931 246 931 q 575 845 489 931 q 661 638 661 760 q 575 431 661 517 q 369 345 490 345 q 160 430 245 345 q 76 638 76 515 m 119 639 q 192 462 119 536 q 368 389 264 389 q 545 462 472 389 q 617 639 617 535 q 544 814 617 741 q 368 888 471 888 q 192 815 264 888 q 119 639 119 743 m 220 647 q 267 765 220 715 q 380 814 313 814 q 498 768 442 814 l 461 729 q 381 768 422 768 q 299 732 332 768 q 266 646 266 695 q 298 561 266 597 q 378 525 330 525 q 466 568 422 525 l 503 529 q 382 479 448 479 q 267 528 313 479 q 220 647 220 578 z "},"ª":{"ha":486,"x_min":70,"x_max":431,"o":"m 70 591 q 151 709 70 661 q 292 772 222 741 l 292 792 q 279 860 292 841 q 213 884 262 884 q 110 846 164 884 l 138 944 q 244 969 193 969 q 376 907 341 969 q 402 760 402 863 q 401 711 402 745 q 401 661 401 677 q 431 484 401 543 l 292 484 l 292 531 l 236 478 l 205 477 q 110 503 146 476 q 70 591 70 534 m 181 618 q 247 562 181 562 q 292 566 269 562 l 292 682 l 195 682 q 181 618 181 643 z "},"«":{"ha":578,"x_min":33,"x_max":548,"o":"m 33 363 q 94 473 64 418 q 141 591 129 540 l 296 591 q 229 479 264 548 q 170 363 199 420 q 225 245 197 304 q 296 138 259 178 l 134 138 q 33 363 121 184 m 286 363 q 347 473 316 418 q 393 591 381 540 l 548 591 q 481 479 517 548 q 422 363 452 420 q 477 245 450 304 q 548 138 511 178 l 386 138 q 286 363 374 184 z "},"¬":{"ha":1181,"x_min":222,"x_max":975,"o":"m 222 431 l 222 595 q 381 576 292 576 l 796 576 q 956 595 887 576 l 956 220 q 975 146 958 192 l 812 146 q 831 220 828 192 l 831 450 l 382 450 q 222 431 293 450 z "},"­":{"ha":393,"x_min":22,"x_max":333,"o":"m 22 305 l 68 410 l 323 410 l 333 391 l 280 280 l 31 280 l 22 305 z "},"®":{"ha":625,"x_min":76,"x_max":661,"o":"m 76 638 q 161 846 76 760 q 368 931 246 931 q 575 845 489 931 q 661 638 661 760 q 575 431 661 517 q 369 345 490 345 q 160 430 245 345 q 76 638 76 515 m 119 639 q 192 462 119 536 q 368 389 264 389 q 545 462 472 389 q 617 639 617 535 q 544 814 617 741 q 368 888 471 888 q 192 815 264 888 q 119 639 119 743 m 271 493 l 271 800 l 374 800 q 472 711 472 800 q 420 630 472 657 l 475 493 l 417 493 l 368 619 l 316 619 l 316 493 l 271 493 m 316 665 l 376 665 q 426 710 426 665 q 376 754 426 754 l 316 754 l 316 665 z "},"¯":{"ha":787,"x_min":205,"x_max":583,"o":"m 205 774 l 205 882 l 583 882 l 583 774 l 205 774 z "},"°":{"ha":538,"x_min":57,"x_max":482,"o":"m 57 704 q 119 854 57 791 q 269 917 182 917 q 419 854 357 917 q 482 704 482 791 q 420 555 482 617 q 269 493 357 493 q 119 555 182 493 q 57 704 57 617 m 115 704 q 161 593 115 639 q 272 547 207 547 q 384 593 338 547 q 429 704 429 639 q 384 815 429 770 q 272 861 338 861 q 161 815 207 861 q 115 704 115 770 z "},"±":{"ha":847,"x_min":122,"x_max":766,"o":"m 122 0 l 766 0 l 766 -83 l 122 -83 l 122 0 m 122 245 l 122 329 l 399 329 l 399 621 l 482 621 l 482 329 l 766 329 l 766 245 l 482 245 l 482 52 l 399 52 l 399 245 l 122 245 z "},"²":{"ha":385,"x_min":52,"x_max":346,"o":"m 52 449 l 75 536 q 248 768 248 656 q 168 840 248 840 q 77 808 121 840 l 66 818 l 87 890 q 193 914 132 914 q 286 885 248 914 q 329 798 329 853 q 265 642 329 722 q 153 532 231 600 q 232 528 228 528 q 334 538 308 528 l 346 530 l 329 443 q 193 447 187 447 q 61 441 115 447 l 52 449 z "},"³":{"ha":385,"x_min":54,"x_max":334,"o":"m 54 478 l 81 555 l 97 555 q 179 507 118 507 q 244 530 216 507 q 272 586 272 553 q 179 656 272 656 q 136 650 155 656 l 129 657 l 142 711 q 236 789 236 721 q 172 842 236 842 q 100 818 123 842 l 83 821 l 103 889 q 195 914 133 914 q 275 886 245 914 q 304 812 304 857 q 243 714 304 746 q 334 611 334 695 q 282 487 334 541 q 160 433 231 433 q 54 478 92 433 z "},"´":{"ha":787,"x_min":335,"x_max":563,"o":"m 335 733 l 351 768 q 377 838 363 796 q 397 916 394 890 l 399 939 l 563 939 l 541 913 q 442 760 493 854 l 428 733 l 335 733 z "},"µ":{"ha":694,"x_min":-76,"x_max":685,"o":"m -76 -206 l -65 -180 q -3 -32 -24 -83 q 54 132 31 54 l 190 600 l 309 600 l 203 245 q 186 155 186 189 q 216 91 186 115 q 284 68 243 68 q 414 153 363 68 q 505 375 462 230 l 570 600 l 685 600 l 595 287 q 559 128 576 222 q 549 28 549 67 l 549 0 l 436 0 l 436 12 q 437 72 436 50 l 440 101 l 422 73 q 277 -17 363 -18 q 198 9 227 -17 q 159 81 178 27 l 53 -206 l -76 -206 z "},"¶":{"ha":787,"x_min":182,"x_max":699,"o":"m 182 634 q 211 760 182 703 q 450 921 279 893 q 584 931 513 931 l 699 931 l 699 880 l 614 880 l 614 -199 l 566 -199 l 566 880 l 505 880 l 505 -199 l 457 -199 l 457 349 l 418 357 q 248 452 312 378 q 182 634 182 528 z "},"·":{"ha":393,"x_min":93,"x_max":300,"o":"m 93 485 q 123 558 93 528 q 197 589 153 589 q 270 558 239 589 q 300 485 300 528 q 270 411 300 441 q 197 381 240 381 q 123 411 153 381 q 93 485 93 441 z "},"¸":{"ha":787,"x_min":258,"x_max":524,"o":"m 258 -255 l 267 -196 l 283 -203 q 345 -216 314 -216 q 408 -195 382 -216 q 435 -137 435 -173 q 404 -76 435 -102 q 338 -54 378 -55 q 302 -60 320 -54 l 288 -64 l 311 9 l 319 11 q 353 15 332 14 q 473 -24 425 15 q 524 -136 524 -66 q 484 -235 523 -195 q 387 -283 440 -281 l 362 -285 q 277 -265 316 -288 l 258 -255 z "},"¹":{"ha":385,"x_min":68,"x_max":250,"o":"m 68 800 l 81 861 l 220 896 l 249 890 l 245 696 q 250 447 245 627 l 196 429 l 179 429 l 180 751 q 140 796 181 796 q 78 785 106 796 l 68 800 z "},"º":{"ha":486,"x_min":22,"x_max":471,"o":"m 22 715 q 86 895 22 825 q 260 969 153 969 q 452 840 401 969 q 471 734 471 791 q 409 554 471 627 q 239 477 344 477 q 81 549 142 477 q 22 715 22 616 m 134 735 q 165 626 134 673 q 259 565 200 574 l 279 562 l 293 570 q 346 643 327 590 q 359 714 359 679 q 321 829 358 778 q 218 884 279 884 l 203 882 l 188 869 q 139 785 153 840 q 134 735 134 764 z "},"»":{"ha":578,"x_min":31,"x_max":545,"o":"m 31 138 q 98 250 62 181 l 156 366 l 100 483 q 31 591 66 549 l 193 591 q 293 366 205 545 q 232 256 262 311 q 186 138 197 189 l 31 138 m 283 138 q 350 250 315 181 l 408 366 l 353 483 q 283 591 319 549 l 445 591 q 545 366 457 545 q 484 256 515 311 q 437 138 450 189 l 283 138 z "},"¼":{"ha":884,"x_min":68,"x_max":839,"o":"m 68 602 l 81 663 l 220 697 l 249 692 l 245 497 q 250 249 245 429 l 196 231 l 179 231 l 180 553 q 140 597 181 597 q 78 586 106 597 l 68 602 m 221 -28 l 625 708 l 681 708 l 279 -28 l 221 -28 m 533 98 l 543 192 q 717 435 622 357 q 786 446 734 440 l 786 184 l 839 184 l 828 98 l 786 98 l 786 -9 l 733 -28 l 721 -28 l 721 98 l 533 98 m 607 184 l 721 184 l 721 354 q 607 184 637 282 z "},"½":{"ha":884,"x_min":68,"x_max":843,"o":"m 68 602 l 81 663 l 220 697 l 249 692 l 245 497 q 250 249 245 429 l 196 231 l 179 231 l 180 553 q 140 597 181 597 q 78 586 106 597 l 68 602 m 193 -28 l 597 708 l 653 708 l 252 -28 l 193 -28 m 549 -12 l 572 75 q 745 307 745 195 q 665 379 745 379 q 574 347 619 379 l 564 357 l 585 429 q 690 453 629 453 q 783 424 745 453 q 827 336 827 392 q 762 181 827 261 q 650 71 728 139 q 729 66 725 66 q 831 77 805 66 l 843 69 l 827 -18 q 690 -14 685 -14 q 558 -20 612 -14 l 549 -12 z "},"¾":{"ha":884,"x_min":54,"x_max":839,"o":"m 54 272 l 81 350 l 97 350 q 179 301 118 301 q 244 324 216 301 q 272 380 272 347 q 179 450 272 450 q 136 444 155 450 l 129 452 l 142 505 q 236 583 236 515 q 172 636 236 636 q 100 612 123 636 l 83 615 l 103 684 q 195 708 133 708 q 275 680 245 708 q 304 607 304 652 q 243 509 304 541 q 334 406 334 490 q 282 281 334 335 q 160 228 231 228 q 54 272 92 228 m 221 -28 l 625 708 l 681 708 l 279 -28 l 221 -28 m 533 98 l 543 192 q 717 435 622 357 q 786 446 734 440 l 786 184 l 839 184 l 828 98 l 786 98 l 786 -9 l 733 -28 l 721 -28 l 721 98 l 533 98 m 607 184 l 721 184 l 721 354 q 607 184 637 282 z "},"¿":{"ha":615,"x_min":52,"x_max":403,"o":"m 52 43 q 96 168 52 116 q 152 225 124 197 q 183 293 183 260 q 154 345 183 322 q 252 439 165 372 l 275 433 q 313 333 313 395 q 283 262 312 300 q 227 198 273 248 q 175 101 175 144 q 279 11 175 11 q 345 22 316 11 q 385 39 365 30 l 403 23 q 374 -37 393 4 q 345 -98 354 -78 q 236 -114 290 -114 q 52 43 52 -114 m 129 565 l 132 587 l 216 679 l 233 679 l 336 594 l 336 577 l 245 481 l 229 481 l 129 565 z "},"×":{"ha":847,"x_min":140,"x_max":728,"o":"m 140 54 l 386 307 l 140 555 l 191 606 l 436 357 l 682 610 l 728 559 l 486 307 l 728 54 l 682 4 l 436 257 l 191 4 l 140 54 z "},"÷":{"ha":847,"x_min":122,"x_max":766,"o":"m 122 245 l 122 329 l 766 329 l 766 245 l 122 245 m 375 78 q 395 128 375 107 q 444 149 416 149 q 494 128 473 149 q 514 78 514 107 q 494 28 514 49 q 444 8 473 8 q 395 28 415 8 q 375 78 375 49 m 375 496 q 395 546 375 525 q 444 567 416 567 q 494 546 473 567 q 514 496 514 525 q 494 447 514 467 q 444 427 473 427 q 395 447 415 427 q 375 496 375 467 z "}," ":{"ha":498,"x_min":0,"x_max":0,"o":""}," ":{"ha":998,"x_min":0,"x_max":0,"o":""}," ":{"ha":498,"x_min":0,"x_max":0,"o":""}," ":{"ha":998,"x_min":0,"x_max":0,"o":""}," ":{"ha":332,"x_min":0,"x_max":0,"o":""}," ":{"ha":249,"x_min":0,"x_max":0,"o":""}," ":{"ha":166,"x_min":0,"x_max":0,"o":""}," ":{"ha":166,"x_min":0,"x_max":0,"o":""}," ":{"ha":124,"x_min":0,"x_max":0,"o":""}," ":{"ha":199,"x_min":0,"x_max":0,"o":""}," ":{"ha":55,"x_min":0,"x_max":0,"o":""},"‐":{"ha":385,"x_min":25,"x_max":370,"o":"m 25 339 l 75 456 l 358 456 l 370 435 l 311 311 l 35 311 l 25 339 z "},"‑":{"ha":385,"x_min":25,"x_max":370,"o":"m 25 339 l 75 456 l 358 456 l 370 435 l 311 311 l 35 311 l 25 339 z "},"‒":{"ha":385,"x_min":25,"x_max":370,"o":"m 25 339 l 75 456 l 358 456 l 370 435 l 311 311 l 35 311 l 25 339 z "},"–":{"ha":787,"x_min":53,"x_max":733,"o":"m 53 321 l 53 452 q 189 434 100 434 l 576 434 q 733 452 674 434 l 733 321 q 576 338 684 338 l 189 338 q 53 321 100 338 z "},"—":{"ha":1389,"x_min":157,"x_max":1232,"o":"m 157 321 l 157 452 q 260 434 224 434 l 1129 434 q 1232 452 1165 434 l 1232 321 q 1128 338 1165 338 l 264 338 q 157 321 222 338 z "},"‘":{"ha":393,"x_min":49,"x_max":332,"o":"m 49 528 q 242 955 68 722 l 332 955 q 228 627 228 747 q 235 528 228 578 l 49 528 z "},"’":{"ha":393,"x_min":66,"x_max":349,"o":"m 66 528 q 170 856 170 736 q 161 955 170 904 l 349 955 q 283 728 337 836 q 155 528 243 647 l 66 528 z "},"‚":{"ha":393,"x_min":18,"x_max":301,"o":"m 18 -240 q 121 96 121 -31 q 114 187 121 142 l 301 187 q 107 -240 281 -14 l 18 -240 z "},"“":{"ha":671,"x_min":47,"x_max":606,"o":"m 47 528 q 117 755 66 650 q 243 955 159 843 l 330 955 q 257 791 275 842 q 227 613 227 705 q 235 528 227 576 l 47 528 m 323 528 q 392 754 342 650 q 519 955 433 841 l 606 955 q 503 606 503 752 q 510 528 503 570 l 323 528 z "},"”":{"ha":671,"x_min":64,"x_max":623,"o":"m 64 528 q 168 877 168 728 q 161 955 168 913 l 347 955 q 279 728 329 833 q 152 528 237 642 l 64 528 m 340 528 q 414 692 395 634 q 444 870 444 780 q 436 955 444 906 l 623 955 q 555 728 604 832 q 428 528 513 641 l 340 528 z "},"„":{"ha":671,"x_min":12,"x_max":570,"o":"m 12 -240 q 115 109 115 -37 q 107 187 115 146 l 294 187 q 227 -39 275 61 q 99 -240 187 -121 l 12 -240 m 288 -240 q 362 -73 346 -121 q 391 110 391 12 q 383 187 391 144 l 570 187 q 501 -39 551 64 q 374 -240 459 -127 l 288 -240 z "},"•":{"ha":903,"x_min":140,"x_max":762,"o":"m 140 448 q 231 669 140 578 q 451 760 321 760 q 671 668 580 760 q 762 448 762 577 q 671 228 762 319 q 451 137 580 137 q 230 228 320 137 q 140 448 140 318 z "},"…":{"ha":1389,"x_min":140,"x_max":1249,"o":"m 140 79 q 167 145 140 117 q 233 172 195 172 q 298 144 271 172 q 326 79 326 117 q 298 13 326 40 q 233 -14 271 -14 q 167 13 195 -14 q 140 79 140 40 m 602 79 q 629 145 602 118 q 694 172 656 172 q 760 144 732 172 q 787 78 787 116 q 761 13 787 39 q 694 -14 734 -14 q 629 13 656 -14 q 602 79 602 40 m 1063 79 q 1091 145 1063 118 q 1156 172 1118 172 q 1222 145 1195 172 q 1249 79 1249 118 q 1222 14 1249 41 q 1156 -14 1194 -14 q 1090 13 1118 -14 q 1063 79 1063 41 z "}," ":{"ha":199,"x_min":0,"x_max":0,"o":""},"‹":{"ha":324,"x_min":33,"x_max":296,"o":"m 33 363 q 94 473 64 418 q 141 591 129 540 l 296 591 q 229 479 264 548 q 170 363 199 420 q 225 245 197 304 q 296 138 259 178 l 134 138 q 33 363 121 184 z "},"›":{"ha":324,"x_min":27,"x_max":290,"o":"m 27 138 q 94 250 59 180 l 154 366 q 98 484 126 425 q 27 591 64 550 l 190 591 q 290 366 202 545 q 229 255 260 311 q 182 138 195 189 l 27 138 z "}," ":{"ha":249,"x_min":0,"x_max":0,"o":""},"™":{"ha":764,"x_min":70,"x_max":683,"o":"m 70 793 l 70 847 l 309 847 l 309 793 l 216 793 l 216 477 l 162 477 l 162 793 l 70 793 m 351 477 l 351 847 l 450 847 l 518 555 l 583 847 l 683 847 l 683 477 l 629 477 l 629 810 l 625 810 l 550 477 l 484 477 l 410 810 l 406 810 l 406 477 l 351 477 z "},"◼":{"ha":665,"x_min":0,"x_max":665,"o":"m 0 0 l 0 665 l 665 665 l 665 0 l 0 0 z "}}}
